<?xml version="1.0" encoding="UTF-8" standalone="no"?>
<svg
   xmlns:dc="http://purl.org/dc/elements/1.1/"
   xmlns:cc="http://creativecommons.org/ns#"
   xmlns:rdf="http://www.w3.org/1999/02/22-rdf-syntax-ns#"
   xmlns:svg="http://www.w3.org/2000/svg"
   xmlns="http://www.w3.org/2000/svg"
   xmlns:xlink="http://www.w3.org/1999/xlink"
   xmlns:sodipodi="http://sodipodi.sourceforge.net/DTD/sodipodi-0.dtd"
   xmlns:inkscape="http://www.inkscape.org/namespaces/inkscape"
   viewBox="1 1 176 176"
   version="1.1"
   id="svg1222"
   sodipodi:docname="browser_firefox.svg"
   inkscape:version="0.92.4 (5da689c313, 2019-01-14)">
  <metadata
     id="metadata1226">
    <rdf:RDF>
      <cc:Work
         rdf:about="">
        <dc:format>image/svg+xml</dc:format>
        <dc:type
           rdf:resource="http://purl.org/dc/dcmitype/StillImage" />
        <dc:title></dc:title>
      </cc:Work>
    </rdf:RDF>
  </metadata>
  <sodipodi:namedview
     pagecolor="#ffffff"
     bordercolor="#666666"
     borderopacity="1"
     objecttolerance="10"
     gridtolerance="10"
     guidetolerance="10"
     inkscape:pageopacity="0"
     inkscape:pageshadow="2"
     inkscape:window-width="1920"
     inkscape:window-height="1001"
     id="namedview1224"
     showgrid="false"
     inkscape:zoom="4.5909091"
     inkscape:cx="49.818192"
     inkscape:cy="110.77557"
     inkscape:window-x="-9"
     inkscape:window-y="-9"
     inkscape:window-maximized="1"
     inkscape:current-layer="svg1222" />
  <style
     id="style1099"><![CDATA[.B{clip-path:url(#C)}.C{fill:#3e2723}.D{fill-opacity:.15}.E{fill-opacity:.2}]]></style>
  <defs
     id="defs1103">
    <circle
       id="A"
       cx="96"
       cy="96"
       r="88" />
    <path
       id="B"
       d="M8 184h83.77l38.88-38.88V116h-69.3L8 24.48z" />
    <linearGradient
       id="a"
       x1="70.786003"
       y1="12.393"
       x2="6.447"
       y2="74.468002"
       gradientUnits="userSpaceOnUse"
       gradientTransform="translate(-1.3,-0.0040855)">
      <stop
         offset=".048"
         stop-color="#fff44f"
         id="stop834" />
      <stop
         offset=".111"
         stop-color="#ffe847"
         id="stop836" />
      <stop
         offset=".225"
         stop-color="#ffc830"
         id="stop838" />
      <stop
         offset=".368"
         stop-color="#ff980e"
         id="stop840" />
      <stop
         offset=".401"
         stop-color="#ff8b16"
         id="stop842" />
      <stop
         offset=".462"
         stop-color="#ff672a"
         id="stop844" />
      <stop
         offset=".534"
         stop-color="#ff3647"
         id="stop846" />
      <stop
         offset=".705"
         stop-color="#e31587"
         id="stop848" />
    </linearGradient>
    <radialGradient
       id="b"
       cx="-7907.187"
       cy="-8515.1211"
       r="80.796997"
       gradientTransform="translate(7973.7,8523.9959)"
       gradientUnits="userSpaceOnUse">
      <stop
         offset=".129"
         stop-color="#ffbd4f"
         id="stop851" />
      <stop
         offset=".186"
         stop-color="#ffac31"
         id="stop853" />
      <stop
         offset=".247"
         stop-color="#ff9d17"
         id="stop855" />
      <stop
         offset=".283"
         stop-color="#ff980e"
         id="stop857" />
      <stop
         offset=".403"
         stop-color="#ff563b"
         id="stop859" />
      <stop
         offset=".467"
         stop-color="#ff3750"
         id="stop861" />
      <stop
         offset=".71"
         stop-color="#f5156c"
         id="stop863" />
      <stop
         offset=".782"
         stop-color="#eb0878"
         id="stop865" />
      <stop
         offset=".86"
         stop-color="#e50080"
         id="stop867" />
    </radialGradient>
    <radialGradient
       id="c"
       cx="-7936.7109"
       cy="-8482.0889"
       r="80.796997"
       gradientTransform="translate(7973.7,8523.9959)"
       gradientUnits="userSpaceOnUse">
      <stop
         offset=".3"
         stop-color="#960e18"
         id="stop870" />
      <stop
         offset=".351"
         stop-color="#b11927"
         stop-opacity=".74"
         id="stop872" />
      <stop
         offset=".435"
         stop-color="#db293d"
         stop-opacity=".343"
         id="stop874" />
      <stop
         offset=".497"
         stop-color="#f5334b"
         stop-opacity=".094"
         id="stop876" />
      <stop
         offset=".53"
         stop-color="#ff3750"
         stop-opacity="0"
         id="stop878" />
    </radialGradient>
    <radialGradient
       id="d"
       cx="-7926.9702"
       cy="-8533.457"
       r="58.534"
       gradientTransform="translate(7973.7,8523.9959)"
       gradientUnits="userSpaceOnUse">
      <stop
         offset=".132"
         stop-color="#fff44f"
         id="stop881" />
      <stop
         offset=".252"
         stop-color="#ffdc3e"
         id="stop883" />
      <stop
         offset=".506"
         stop-color="#ff9d12"
         id="stop885" />
      <stop
         offset=".526"
         stop-color="#ff980e"
         id="stop887" />
    </radialGradient>
    <radialGradient
       id="e"
       cx="-7945.6479"
       cy="-8460.9844"
       r="38.471001"
       gradientTransform="translate(7973.7,8523.9959)"
       gradientUnits="userSpaceOnUse">
      <stop
         offset=".353"
         stop-color="#3a8ee6"
         id="stop890" />
      <stop
         offset=".472"
         stop-color="#5c79f0"
         id="stop892" />
      <stop
         offset=".669"
         stop-color="#9059ff"
         id="stop894" />
      <stop
         offset="1"
         stop-color="#c139e6"
         id="stop896" />
    </radialGradient>
    <radialGradient
       id="f"
       cx="-7935.6201"
       cy="-8491.5459"
       r="20.396999"
       gradientTransform="matrix(0.972,-0.235,0.275,1.138,10090.002,7833.7939)"
       gradientUnits="userSpaceOnUse">
      <stop
         offset=".206"
         stop-color="#9059ff"
         stop-opacity="0"
         id="stop899" />
      <stop
         offset=".278"
         stop-color="#8c4ff3"
         stop-opacity=".064"
         id="stop901" />
      <stop
         offset=".747"
         stop-color="#7716a8"
         stop-opacity=".45"
         id="stop903" />
      <stop
         offset=".975"
         stop-color="#6e008b"
         stop-opacity=".6"
         id="stop905" />
    </radialGradient>
    <radialGradient
       id="g"
       cx="-7937.731"
       cy="-8518.4268"
       r="27.676001"
       gradientTransform="translate(7973.7,8523.9959)"
       gradientUnits="userSpaceOnUse">
      <stop
         offset="0"
         stop-color="#ffe226"
         id="stop908" />
      <stop
         offset=".121"
         stop-color="#ffdb27"
         id="stop910" />
      <stop
         offset=".295"
         stop-color="#ffc82a"
         id="stop912" />
      <stop
         offset=".502"
         stop-color="#ffa930"
         id="stop914" />
      <stop
         offset=".732"
         stop-color="#ff7e37"
         id="stop916" />
      <stop
         offset=".792"
         stop-color="#ff7139"
         id="stop918" />
    </radialGradient>
    <radialGradient
       id="h"
       cx="-7915.9771"
       cy="-8535.9814"
       r="118.081"
       gradientTransform="translate(7973.7,8523.9959)"
       gradientUnits="userSpaceOnUse">
      <stop
         offset=".113"
         stop-color="#fff44f"
         id="stop921" />
      <stop
         offset=".456"
         stop-color="#ff980e"
         id="stop923" />
      <stop
         offset=".622"
         stop-color="#ff5634"
         id="stop925" />
      <stop
         offset=".716"
         stop-color="#ff3647"
         id="stop927" />
      <stop
         offset=".904"
         stop-color="#e31587"
         id="stop929" />
    </radialGradient>
    <radialGradient
       id="i"
       cx="-7927.165"
       cy="-8522.8594"
       r="86.499001"
       gradientTransform="matrix(0.105,0.995,-0.653,0.069,-4685.304,8470.1869)"
       gradientUnits="userSpaceOnUse">
      <stop
         offset="0"
         stop-color="#fff44f"
         id="stop932" />
      <stop
         offset=".06"
         stop-color="#ffe847"
         id="stop934" />
      <stop
         offset=".168"
         stop-color="#ffc830"
         id="stop936" />
      <stop
         offset=".304"
         stop-color="#ff980e"
         id="stop938" />
      <stop
         offset=".356"
         stop-color="#ff8b16"
         id="stop940" />
      <stop
         offset=".455"
         stop-color="#ff672a"
         id="stop942" />
      <stop
         offset=".57"
         stop-color="#ff3647"
         id="stop944" />
      <stop
         offset=".737"
         stop-color="#e31587"
         id="stop946" />
    </radialGradient>
    <radialGradient
       id="j"
       cx="-7938.3828"
       cy="-8508.1758"
       r="73.720001"
       gradientTransform="translate(7973.7,8523.9959)"
       gradientUnits="userSpaceOnUse">
      <stop
         offset=".137"
         stop-color="#fff44f"
         id="stop949" />
      <stop
         offset=".48"
         stop-color="#ff980e"
         id="stop951" />
      <stop
         offset=".592"
         stop-color="#ff5634"
         id="stop953" />
      <stop
         offset=".655"
         stop-color="#ff3647"
         id="stop955" />
      <stop
         offset=".904"
         stop-color="#e31587"
         id="stop957" />
    </radialGradient>
    <radialGradient
       id="k"
       cx="-7918.9229"
       cy="-8503.8613"
       r="80.685997"
       gradientTransform="translate(7973.7,8523.9959)"
       gradientUnits="userSpaceOnUse">
      <stop
         offset=".094"
         stop-color="#fff44f"
         id="stop960" />
      <stop
         offset=".231"
         stop-color="#ffe141"
         id="stop962" />
      <stop
         offset=".509"
         stop-color="#ffaf1e"
         id="stop964" />
      <stop
         offset=".626"
         stop-color="#ff980e"
         id="stop966" />
    </radialGradient>
    <linearGradient
       id="l"
       x1="70.013"
       y1="12.061"
       x2="15.267"
       y2="66.806"
       gradientUnits="userSpaceOnUse"
       gradientTransform="translate(-1.3,-0.0040855)">
      <stop
         offset=".167"
         stop-color="#fff44f"
         stop-opacity=".8"
         id="stop969" />
      <stop
         offset=".266"
         stop-color="#fff44f"
         stop-opacity=".634"
         id="stop971" />
      <stop
         offset=".489"
         stop-color="#fff44f"
         stop-opacity=".217"
         id="stop973" />
      <stop
         offset=".6"
         stop-color="#fff44f"
         stop-opacity="0"
         id="stop975" />
    </linearGradient>
  </defs>
  <clipPath
     id="C">
    <use
       xlink:href="#A"
       id="use1105" />
  </clipPath>
  <radialGradient
     id="K"
     cx="668.2"
     cy="55.95"
     r="84.08"
     gradientTransform="translate(-576)"
     gradientUnits="userSpaceOnUse">
    <stop
       stop-color="#3e2723"
       stop-opacity=".2"
       offset="0"
       id="stop1165" />
    <stop
       stop-color="#3e2723"
       stop-opacity="0"
       offset="1"
       id="stop1167" />
  </radialGradient>
  <radialGradient
     id="N"
     cx="597.9"
     cy="48.52"
     r="78.04"
     gradientTransform="translate(-576)"
     gradientUnits="userSpaceOnUse">
    <stop
       stop-color="#3e2723"
       stop-opacity=".2"
       offset="0"
       id="stop1188" />
    <stop
       stop-color="#3e2723"
       stop-opacity="0"
       offset="1"
       id="stop1190" />
  </radialGradient>
  <radialGradient
     id="O"
     cx="671.8"
     cy="96.14"
     r="87.87"
     gradientTransform="translate(-576)"
     gradientUnits="userSpaceOnUse">
    <stop
       stop-color="#263238"
       stop-opacity=".2"
       offset="0"
       id="stop1195" />
    <stop
       stop-color="#263238"
       stop-opacity="0"
       offset="1"
       id="stop1197" />
  </radialGradient>
  <g
     id="g1512"
     transform="matrix(2.2012384,0,0,2.2012384,3.4356436,0.7557953)">
    <path
       inkscape:connector-curvature="0"
       d="m 74.616,26.826915 c -1.684,-4.052 -5.1,-8.427 -7.775,-9.81 a 40.266,40.266 0 0 1 3.925,11.764 l 0.007,0.065 c -4.382,-10.925 -11.813,-15.33 -17.882,-24.9220005 -0.307,-0.485 -0.614,-0.971 -0.913,-1.484 -0.171,-0.293 -0.308,-0.557 -0.427,-0.8 a 7.053,7.053 0 0 1 -0.578,-1.535 0.1,0.1 0 0 0 -0.088,-0.1 0.138,0.138 0 0 0 -0.073,0 c -0.005,0 -0.013,0.009 -0.019,0.011 -0.006,0.002 -0.019,0.011 -0.028,0.015 l 0.015,-0.026 c -9.735,5.7 -13.038,16.2520005 -13.342,21.5300005 a 19.387,19.387 0 0 0 -10.666,4.111 11.587,11.587 0 0 0 -1,-0.758 17.968,17.968 0 0 1 -0.109,-9.473 28.705,28.705 0 0 0 -9.329,7.21 h -0.018 c -1.536,-1.947 -1.428,-8.367 -1.34,-9.708 a 6.928,6.928 0 0 0 -1.294,0.687 28.225,28.225 0 0 0 -3.788,3.245 33.845,33.845 0 0 0 -3.623,4.347 v 0.006 -0.007 a 32.733,32.733 0 0 0 -5.2,11.743 l -0.052,0.256 c -0.073,0.341 -0.336,2.049 -0.381,2.42 0,0.029 -0.006,0.056 -0.009,0.085 A 36.937,36.937 0 0 0 0,41.041915 v 0.2 a 38.759,38.759 0 0 0 76.954,6.554 c 0.065,-0.5 0.118,-0.995 0.176,-1.5 a 39.857,39.857 0 0 0 -2.514,-19.469 z m -44.67,30.338 c 0.181,0.087 0.351,0.181 0.537,0.264 l 0.027,0.017 q -0.282,-0.135 -0.564,-0.281 z m 8.878,-23.376 z m 31.952,-4.934 v -0.037 l 0.007,0.041 z"
       id="path980"
       style="fill:url(#a)" />
    <path
       inkscape:connector-curvature="0"
       d="m 74.616,26.826915 c -1.684,-4.052 -5.1,-8.427 -7.775,-9.81 a 40.266,40.266 0 0 1 3.925,11.764 v 0.037 l 0.007,0.041 a 35.1,35.1 0 0 1 -1.206,26.158 c -4.442,9.531 -15.194,19.3 -32.024,18.825 -18.185,-0.515 -34.2,-14.009 -37.194,-31.683 -0.545,-2.787 0,-4.2 0.274,-6.465 A 28.876,28.876 0 0 0 0,41.041915 v 0.2 a 38.759,38.759 0 0 0 76.954,6.554 c 0.065,-0.5 0.118,-0.995 0.176,-1.5 a 39.857,39.857 0 0 0 -2.514,-19.469 z"
       id="path982"
       style="fill:url(#b)" />
    <path
       inkscape:connector-curvature="0"
       d="m 74.616,26.826915 c -1.684,-4.052 -5.1,-8.427 -7.775,-9.81 a 40.266,40.266 0 0 1 3.925,11.764 v 0.037 l 0.007,0.041 a 35.1,35.1 0 0 1 -1.206,26.158 c -4.442,9.531 -15.194,19.3 -32.024,18.825 -18.185,-0.515 -34.2,-14.009 -37.194,-31.683 -0.545,-2.787 0,-4.2 0.274,-6.465 A 28.876,28.876 0 0 0 0,41.041915 v 0.2 a 38.759,38.759 0 0 0 76.954,6.554 c 0.065,-0.5 0.118,-0.995 0.176,-1.5 a 39.857,39.857 0 0 0 -2.514,-19.469 z"
       id="path984"
       style="fill:url(#c)" />
    <path
       inkscape:connector-curvature="0"
       d="m 55.782,31.382915 c 0.084,0.059 0.162,0.118 0.241,0.177 a 21.1,21.1 0 0 0 -3.6,-4.695 C 40.377,14.816915 49.266,0.7419145 50.765,0.0269145 l 0.015,-0.022 c -9.735,5.7 -13.038,16.2520005 -13.342,21.5300005 0.452,-0.031 0.9,-0.069 1.362,-0.069 a 19.56,19.56 0 0 1 16.982,9.917 z"
       id="path986"
       style="fill:url(#d)" />
    <path
       inkscape:connector-curvature="0"
       d="m 38.825,33.788915 c -0.064,0.964 -3.47,4.289 -4.661,4.289 -11.021,0 -12.81,6.667 -12.81,6.667 0.488,5.614 4.4,10.238 9.129,12.684 0.216,0.112 0.435,0.213 0.654,0.312 q 0.569,0.252 1.138,0.466 a 17.235,17.235 0 0 0 5.043,0.973 c 19.317,0.906 23.059,-23.1 9.119,-30.066 a 13.38,13.38 0 0 1 9.345,2.269 19.56,19.56 0 0 0 -16.982,-9.917 c -0.46,0 -0.91,0.038 -1.362,0.069 a 19.387,19.387 0 0 0 -10.666,4.111 c 0.591,0.5 1.258,1.168 2.663,2.553 2.63,2.591 9.375,5.275 9.39,5.59 z"
       id="path988"
       style="fill:url(#e)" />
    <path
       inkscape:connector-curvature="0"
       d="m 38.825,33.788915 c -0.064,0.964 -3.47,4.289 -4.661,4.289 -11.021,0 -12.81,6.667 -12.81,6.667 0.488,5.614 4.4,10.238 9.129,12.684 0.216,0.112 0.435,0.213 0.654,0.312 q 0.569,0.252 1.138,0.466 a 17.235,17.235 0 0 0 5.043,0.973 c 19.317,0.906 23.059,-23.1 9.119,-30.066 a 13.38,13.38 0 0 1 9.345,2.269 19.56,19.56 0 0 0 -16.982,-9.917 c -0.46,0 -0.91,0.038 -1.362,0.069 a 19.387,19.387 0 0 0 -10.666,4.111 c 0.591,0.5 1.258,1.168 2.663,2.553 2.63,2.591 9.375,5.275 9.39,5.59 z"
       id="path990"
       style="fill:url(#f)" />
    <path
       inkscape:connector-curvature="0"
       d="m 24.965,24.356915 c 0.314,0.2 0.573,0.374 0.8,0.531 a 17.968,17.968 0 0 1 -0.109,-9.473 28.705,28.705 0 0 0 -9.329,7.21 c 0.189,-0.005 5.811,-0.106 8.638,1.732 z"
       id="path992"
       style="fill:url(#g)" />
    <path
       inkscape:connector-curvature="0"
       d="m 0.354,42.158915 c 2.991,17.674 19.009,31.168 37.194,31.683 16.83,0.476 27.582,-9.294 32.024,-18.825 a 35.1,35.1 0 0 0 1.206,-26.158 v -0.037 c 0,-0.029 -0.006,-0.046 0,-0.037 l 0.007,0.065 c 1.375,8.977 -3.191,17.674 -10.329,23.555 l -0.022,0.05 c -13.908,11.327 -27.218,6.834 -29.912,5 q -0.282,-0.135 -0.564,-0.281 c -8.109,-3.876 -11.459,-11.264 -10.741,-17.6 a 9.953,9.953 0 0 1 -9.181,-5.775 14.618,14.618 0 0 1 14.249,-0.572 19.3,19.3 0 0 0 14.552,0.572 c -0.015,-0.315 -6.76,-3 -9.39,-5.59 -1.405,-1.385 -2.072,-2.052 -2.663,-2.553 a 11.587,11.587 0 0 0 -1,-0.758 c -0.23,-0.157 -0.489,-0.327 -0.8,-0.531 -2.827,-1.838 -8.449,-1.737 -8.635,-1.732 h -0.018 c -1.536,-1.947 -1.428,-8.367 -1.34,-9.708 a 6.928,6.928 0 0 0 -1.294,0.687 28.225,28.225 0 0 0 -3.788,3.245 33.845,33.845 0 0 0 -3.638,4.337 v 0.006 -0.007 a 32.733,32.733 0 0 0 -5.2,11.743 c -0.019,0.079 -1.396,6.099 -0.717,9.221 z"
       id="path994"
       style="fill:url(#h)" />
    <path
       inkscape:connector-curvature="0"
       d="m 52.425,26.864915 a 21.1,21.1 0 0 1 3.6,4.7 c 0.213,0.161 0.412,0.321 0.581,0.476 8.787,8.1 4.183,19.55 3.84,20.365 7.138,-5.881 11.7,-14.578 10.329,-23.555 -4.384,-10.93 -11.815,-15.335 -17.884,-24.9270005 -0.307,-0.485 -0.614,-0.971 -0.913,-1.484 -0.171,-0.293 -0.308,-0.557 -0.427,-0.8 a 7.053,7.053 0 0 1 -0.578,-1.535 0.1,0.1 0 0 0 -0.088,-0.1 0.138,0.138 0 0 0 -0.073,0 c -0.005,0 -0.013,0.009 -0.019,0.011 -0.006,0.002 -0.019,0.011 -0.028,0.015 -1.499,0.711 -10.388,14.7860005 1.66,26.8340005 z"
       id="path996"
       style="fill:url(#i)" />
    <path
       inkscape:connector-curvature="0"
       d="m 56.6,32.035915 c -0.169,-0.155 -0.368,-0.315 -0.581,-0.476 -0.079,-0.059 -0.157,-0.118 -0.241,-0.177 a 13.38,13.38 0 0 0 -9.345,-2.269 c 13.94,6.97 10.2,30.972 -9.119,30.066 a 17.235,17.235 0 0 1 -5.043,-0.973 q -0.569,-0.213 -1.138,-0.466 c -0.219,-0.1 -0.438,-0.2 -0.654,-0.312 l 0.027,0.017 c 2.694,1.839 16,6.332 29.912,-5 l 0.022,-0.05 c 0.347,-0.81 4.951,-12.263 -3.84,-20.36 z"
       id="path998"
       style="fill:url(#j)" />
    <path
       inkscape:connector-curvature="0"
       d="m 21.354,44.744915 c 0,0 1.789,-6.667 12.81,-6.667 1.191,0 4.6,-3.325 4.661,-4.289 a 19.3,19.3 0 0 1 -14.552,-0.572 14.618,14.618 0 0 0 -14.249,0.572 9.953,9.953 0 0 0 9.181,5.775 c -0.718,6.337 2.632,13.725 10.741,17.6 0.181,0.087 0.351,0.181 0.537,0.264 -4.733,-2.445 -8.641,-7.069 -9.129,-12.683 z"
       id="path1000"
       style="fill:url(#k)" />
    <path
       inkscape:connector-curvature="0"
       d="m 74.616,26.826915 c -1.684,-4.052 -5.1,-8.427 -7.775,-9.81 a 40.266,40.266 0 0 1 3.925,11.764 l 0.007,0.065 c -4.382,-10.925 -11.813,-15.33 -17.882,-24.9220005 -0.307,-0.485 -0.614,-0.971 -0.913,-1.484 -0.171,-0.293 -0.308,-0.557 -0.427,-0.8 a 7.053,7.053 0 0 1 -0.578,-1.535 0.1,0.1 0 0 0 -0.088,-0.1 0.138,0.138 0 0 0 -0.073,0 c -0.005,0 -0.013,0.009 -0.019,0.011 -0.006,0.002 -0.019,0.011 -0.028,0.015 l 0.015,-0.026 c -9.735,5.7 -13.038,16.2520005 -13.342,21.5300005 0.452,-0.031 0.9,-0.069 1.362,-0.069 a 19.56,19.56 0 0 1 16.982,9.917 13.38,13.38 0 0 0 -9.345,-2.269 c 13.94,6.97 10.2,30.972 -9.119,30.066 a 17.235,17.235 0 0 1 -5.043,-0.973 q -0.569,-0.213 -1.138,-0.466 c -0.219,-0.1 -0.438,-0.2 -0.654,-0.312 l 0.027,0.017 q -0.282,-0.135 -0.564,-0.281 c 0.181,0.087 0.351,0.181 0.537,0.264 -4.733,-2.446 -8.641,-7.07 -9.129,-12.684 0,0 1.789,-6.667 12.81,-6.667 1.191,0 4.6,-3.325 4.661,-4.289 -0.015,-0.315 -6.76,-3 -9.39,-5.59 -1.405,-1.385 -2.072,-2.052 -2.663,-2.553 a 11.587,11.587 0 0 0 -1,-0.758 17.968,17.968 0 0 1 -0.109,-9.473 28.705,28.705 0 0 0 -9.329,7.21 h -0.018 c -1.536,-1.947 -1.428,-8.367 -1.34,-9.708 a 6.928,6.928 0 0 0 -1.294,0.687 28.225,28.225 0 0 0 -3.788,3.245 33.845,33.845 0 0 0 -3.623,4.347 v 0.006 -0.007 a 32.733,32.733 0 0 0 -5.2,11.743 l -0.052,0.256 c -0.073,0.341 -0.4,2.073 -0.447,2.445 0,0.028 0,-0.029 0,0 A 45.094,45.094 0 0 0 0,41.041915 v 0.2 a 38.759,38.759 0 0 0 76.954,6.554 c 0.065,-0.5 0.118,-0.995 0.176,-1.5 a 39.857,39.857 0 0 0 -2.514,-19.469 z m -3.845,1.991 0.007,0.041 z"
       id="path1002"
       style="fill:url(#l)" />
  </g>
</svg>
