<?xml version="1.0" encoding="iso-8859-1"?>
<!-- Generator: Adobe Illustrator 19.0.0, SVG Export Plug-In . SVG Version: 6.00 Build 0)  -->
<svg version="1.1" id="Layer_1" xmlns="http://www.w3.org/2000/svg" xmlns:xlink="http://www.w3.org/1999/xlink" x="0px" y="0px"
	 viewBox="0 0 463 463" style="enable-background:new 0 0 463 463;" xml:space="preserve">
<g style="fill:#0271a1;">
	<g>
		<g>
			<path d="M391.5,0h-304C74.542,0,64,10.542,64,23.5V32h-8.5c-4.143,0-7.5,3.358-7.5,7.5c0,4.142,3.357,7.5,7.5,7.5H64v17h-8.5
				c-4.143,0-7.5,3.358-7.5,7.5c0,4.142,3.357,7.5,7.5,7.5H64v17h-8.5c-4.143,0-7.5,3.358-7.5,7.5c0,4.142,3.357,7.5,7.5,7.5H64v17
				h-8.5c-4.143,0-7.5,3.358-7.5,7.5c0,4.142,3.357,7.5,7.5,7.5H64v17h-8.5c-4.143,0-7.5,3.358-7.5,7.5c0,4.142,3.357,7.5,7.5,7.5
				H64v17h-8.5c-4.143,0-7.5,3.358-7.5,7.5c0,4.142,3.357,7.5,7.5,7.5H64v17h-8.5c-4.143,0-7.5,3.358-7.5,7.5
				c0,4.142,3.357,7.5,7.5,7.5H64v17h-8.5c-4.143,0-7.5,3.358-7.5,7.5c0,4.142,3.357,7.5,7.5,7.5H64v17h-8.5
				c-4.143,0-7.5,3.358-7.5,7.5c0,4.142,3.357,7.5,7.5,7.5H64v17h-8.5c-4.143,0-7.5,3.358-7.5,7.5c0,4.142,3.357,7.5,7.5,7.5H64v17
				h-8.5c-4.143,0-7.5,3.358-7.5,7.5c0,4.142,3.357,7.5,7.5,7.5H64v17h-8.5c-4.143,0-7.5,3.358-7.5,7.5c0,4.142,3.357,7.5,7.5,7.5
				H64v17h-8.5c-4.143,0-7.5,3.358-7.5,7.5c0,4.142,3.357,7.5,7.5,7.5H64v8.5c0,12.958,10.542,23.5,23.5,23.5h304
				c12.958,0,23.5-10.542,23.5-23.5v-416C415,10.542,404.458,0,391.5,0z M400,439.5c0,4.687-3.813,8.5-8.5,8.5h-304
				c-4.687,0-8.5-3.813-8.5-8.5V431h8.5c4.143,0,7.5-3.358,7.5-7.5c0-4.142-3.357-7.5-7.5-7.5H79v-17h8.5c4.143,0,7.5-3.358,7.5-7.5
				c0-4.142-3.357-7.5-7.5-7.5H79v-17h8.5c4.143,0,7.5-3.358,7.5-7.5c0-4.142-3.357-7.5-7.5-7.5H79v-17h8.5
				c4.143,0,7.5-3.358,7.5-7.5c0-4.142-3.357-7.5-7.5-7.5H79v-17h8.5c4.143,0,7.5-3.358,7.5-7.5c0-4.142-3.357-7.5-7.5-7.5H79v-17
				h8.5c4.143,0,7.5-3.358,7.5-7.5c0-4.142-3.357-7.5-7.5-7.5H79v-17h8.5c4.143,0,7.5-3.358,7.5-7.5c0-4.142-3.357-7.5-7.5-7.5H79
				v-17h8.5c4.143,0,7.5-3.358,7.5-7.5c0-4.142-3.357-7.5-7.5-7.5H79v-17h8.5c4.143,0,7.5-3.358,7.5-7.5c0-4.142-3.357-7.5-7.5-7.5
				H79v-17h8.5c4.143,0,7.5-3.358,7.5-7.5c0-4.142-3.357-7.5-7.5-7.5H79v-17h8.5c4.143,0,7.5-3.358,7.5-7.5
				c0-4.142-3.357-7.5-7.5-7.5H79V79h8.5c4.143,0,7.5-3.358,7.5-7.5c0-4.142-3.357-7.5-7.5-7.5H79V47h8.5c4.143,0,7.5-3.358,7.5-7.5
				c0-4.142-3.357-7.5-7.5-7.5H79v-8.5c0-4.687,3.813-8.5,8.5-8.5h304c4.687,0,8.5,3.813,8.5,8.5V439.5z"/>
			<path d="M359.5,64h-208c-4.143,0-7.5,3.358-7.5,7.5c0,4.142,3.357,7.5,7.5,7.5h208c4.143,0,7.5-3.358,7.5-7.5
				C367,67.358,363.643,64,359.5,64z"/>
			<path d="M359.5,96h-208c-4.143,0-7.5,3.358-7.5,7.5c0,4.142,3.357,7.5,7.5,7.5h208c4.143,0,7.5-3.358,7.5-7.5
				C367,99.358,363.643,96,359.5,96z"/>
			<path d="M359.5,128h-208c-4.143,0-7.5,3.358-7.5,7.5c0,4.142,3.357,7.5,7.5,7.5h208c4.143,0,7.5-3.358,7.5-7.5
				C367,131.358,363.643,128,359.5,128z"/>
			<path d="M359.5,160h-208c-4.143,0-7.5,3.358-7.5,7.5c0,4.142,3.357,7.5,7.5,7.5h208c4.143,0,7.5-3.358,7.5-7.5
				C367,163.358,363.643,160,359.5,160z"/>
			<path d="M359.5,192h-208c-4.143,0-7.5,3.358-7.5,7.5c0,4.142,3.357,7.5,7.5,7.5h208c4.143,0,7.5-3.358,7.5-7.5
				C367,195.358,363.643,192,359.5,192z"/>
			<path d="M359.5,224h-208c-4.143,0-7.5,3.358-7.5,7.5c0,4.142,3.357,7.5,7.5,7.5h208c4.143,0,7.5-3.358,7.5-7.5
				C367,227.358,363.643,224,359.5,224z"/>
			<path d="M359.5,256h-208c-4.143,0-7.5,3.358-7.5,7.5c0,4.142,3.357,7.5,7.5,7.5h208c4.143,0,7.5-3.358,7.5-7.5
				C367,259.358,363.643,256,359.5,256z"/>
			<path d="M359.5,288h-208c-4.143,0-7.5,3.358-7.5,7.5c0,4.142,3.357,7.5,7.5,7.5h208c4.143,0,7.5-3.358,7.5-7.5
				C367,291.358,363.643,288,359.5,288z"/>
			<path d="M359.5,320h-208c-4.143,0-7.5,3.358-7.5,7.5c0,4.142,3.357,7.5,7.5,7.5h208c4.143,0,7.5-3.358,7.5-7.5
				C367,323.358,363.643,320,359.5,320z"/>
			<path d="M359.5,352h-208c-4.143,0-7.5,3.358-7.5,7.5c0,4.142,3.357,7.5,7.5,7.5h208c4.143,0,7.5-3.358,7.5-7.5
				C367,355.358,363.643,352,359.5,352z"/>
			<path d="M359.5,384h-208c-4.143,0-7.5,3.358-7.5,7.5c0,4.142,3.357,7.5,7.5,7.5h208c4.143,0,7.5-3.358,7.5-7.5
				C367,387.358,363.643,384,359.5,384z"/>
			<path d="M119.5,32c-4.143,0-7.5,3.358-7.5,7.5v384c0,4.142,3.357,7.5,7.5,7.5s7.5-3.358,7.5-7.5v-384
				C127,35.358,123.643,32,119.5,32z"/>
		</g>
	</g>
</g>
<g>
</g>
<g>
</g>
<g>
</g>
<g>
</g>
<g>
</g>
<g>
</g>
<g>
</g>
<g>
</g>
<g>
</g>
<g>
</g>
<g>
</g>
<g>
</g>
<g>
</g>
<g>
</g>
<g>
</g>
</svg>
