<?xml version="1.0" encoding="iso-8859-1"?>
<!-- Generator: Adobe Illustrator 18.0.0, SVG Export Plug-In . SVG Version: 6.00 Build 0)  -->
<!DOCTYPE svg PUBLIC "-//W3C//DTD SVG 1.1//EN" "http://www.w3.org/Graphics/SVG/1.1/DTD/svg11.dtd">
<svg version="1.1" id="Capa_1" xmlns="http://www.w3.org/2000/svg" xmlns:xlink="http://www.w3.org/1999/xlink" x="0px" y="0px"
	 viewBox="0 0 60 60" style="enable-background:new 0 0 60 60;" xml:space="preserve">
<g style="fill:#0271a1;">
	<path d="M58.239,44.132c-3.512-5.364-8.2-8.391-13.251-8.59c-0.27-0.032-0.543-0.053-0.821-0.053c-0.491,0-0.969,0.053-1.431,0.151
		c-4.595,0.594-8.827,3.552-12.062,8.492l-0.466,0.711l0.359,0.548C34.201,50.942,39.095,54,44.349,54
		c5.253,0,10.148-3.058,13.783-8.609l0.466-0.711L58.239,44.132z M49.075,42.397c0,2.707-2.202,4.909-4.909,4.909
		s-4.909-2.202-4.909-4.909c0-2.343,1.652-4.302,3.852-4.788c0.446-0.053,0.895-0.087,1.348-0.087c0.025,0,0.05,0.002,0.075,0.003
		C47.065,37.716,49.075,39.815,49.075,42.397z M44.349,52c-4.387,0-8.538-2.537-11.744-7.161c1.559-2.286,3.348-4.069,5.28-5.304
		c-0.4,0.874-0.629,1.841-0.629,2.863c0,3.81,3.1,6.909,6.909,6.909s6.909-3.1,6.909-6.909c0-1.216-0.318-2.357-0.872-3.351
		c2.204,1.207,4.242,3.107,5.996,5.637C52.979,49.406,48.785,52,44.349,52z"/>
	<path d="M18.402,22h20V12h-20V22z M21.402,14h14v2h-14V14z M21.402,18h14v2h-14V18z"/>
	<path d="M28.056,47.034l-1.436-2.192l1.543-2.354c4.207-6.426,9.993-9.965,16.292-9.965c0.997,0,1.979,0.099,2.946,0.273V0h-36h-10
		v60h10h36v-3.292C46.401,56.895,45.383,57,44.349,57C38.05,57,32.264,53.461,28.056,47.034z M9.402,58h-6V2h6V58z M16.402,10h24v14
		h-24V10z"/>
</g>
<g>
</g>
<g>
</g>
<g>
</g>
<g>
</g>
<g>
</g>
<g>
</g>
<g>
</g>
<g>
</g>
<g>
</g>
<g>
</g>
<g>
</g>
<g>
</g>
<g>
</g>
<g>
</g>
<g>
</g>
</svg>
